<svg width="40" height="40" viewBox="0 0 40 40" fill="none" xmlns="http://www.w3.org/2000/svg">
<path d="M9.58149 36.888C6.54093 31.9261 4.78812 26.0898 4.78812 19.8441C4.78812 13.9728 6.37833 8.31602 9.08993 3.55463" stroke="#272E35" stroke-width="3" stroke-miterlimit="10" stroke-linecap="round" stroke-linejoin="round"/>
<path d="M2.5 5.62207L9.08992 3.55463L11.1533 10.2529" stroke="#272E35" stroke-width="3" stroke-miterlimit="10" stroke-linecap="round" stroke-linejoin="round"/>
<path d="M24.4465 27.429L28.7381 29.9946" stroke="#272E35" stroke-width="3" stroke-miterlimit="10" stroke-linecap="round" stroke-linejoin="round"/>
<path d="M38.3333 16.9826L35.1786 14.1762C33.8121 12.9605 31.7212 13.0731 30.493 14.4284L24.1511 21.4271L16.2832 16.7235C15.0981 16.015 13.5631 16.4014 12.8546 17.5865V17.5865C12.1461 18.7716 12.5325 20.3066 13.7176 21.0151L24.4466 27.4291L22.7362 30.2901C22.2639 31.0802 22.5214 32.1035 23.3115 32.5758L29.0336 35.9966C31.5371 37.4932 35.5079 35.0126 38.3243 36.6963" stroke="#272E35" stroke-width="3" stroke-miterlimit="10" stroke-linecap="round" stroke-linejoin="round"/>
</svg>
