<svg width="48" height="57" viewBox="0 0 48 57" fill="none" xmlns="http://www.w3.org/2000/svg">
<path opacity="0.01" fill-rule="evenodd" clip-rule="evenodd" d="M0 0V56.4706H48V0H0Z" fill="#1C8FF8" fill-opacity="0.338428"/>
<path fill-rule="evenodd" clip-rule="evenodd" d="M27.6 23.353V16.0588C27.6 13.0375 25.5181 10.5883 22.95 10.5883L16.75 27V47.0588H34.234C35.7798 47.0794 37.1022 45.757 37.334 43.9588L39.473 27.5471C39.6095 26.4892 39.3442 25.4141 38.7474 24.6067C38.1506 23.7992 37.2825 23.3408 36.373 23.353H27.6Z" stroke="#140F26" stroke-width="3" stroke-linecap="round" stroke-linejoin="round"/>
<path fill-rule="evenodd" clip-rule="evenodd" d="M16.75 47.0588H12.1C10.3879 47.0588 9 45.426 9 43.4118V30.6471C9 28.6328 10.3879 27 12.1 27H16.75V47.0588Z" stroke="#140F26" stroke-width="3" stroke-linecap="round" stroke-linejoin="round"/>
</svg>
